<mxfile host="app.diagrams.net" modified="2023-05-24T03:35:18.792Z" agent="Mozilla/5.0 (X11; Linux x86_64) AppleWebKit/537.36 (KHTML, like Gecko) Chrome/107.0.0.0 Safari/537.36" etag="HAEUl-cl1K3sNcYLay9d" version="21.3.2" type="github">
  <diagram name="第 1 页" id="uCg1pOaUGEwLTYXrogsO">
    <mxGraphModel dx="1434" dy="715" grid="1" gridSize="10" guides="1" tooltips="1" connect="1" arrows="1" fold="1" page="1" pageScale="1" pageWidth="827" pageHeight="1169" math="0" shadow="0">
      <root>
        <mxCell id="0" />
        <mxCell id="1" parent="0" />
        <mxCell id="KIFSzNHvPBRjN9k_AgCd-16" style="edgeStyle=orthogonalEdgeStyle;rounded=0;orthogonalLoop=1;jettySize=auto;html=1;exitX=0.5;exitY=1;exitDx=0;exitDy=0;" edge="1" parent="1" source="KIFSzNHvPBRjN9k_AgCd-1" target="KIFSzNHvPBRjN9k_AgCd-3">
          <mxGeometry relative="1" as="geometry" />
        </mxCell>
        <mxCell id="KIFSzNHvPBRjN9k_AgCd-1" value="开始" style="ellipse;whiteSpace=wrap;html=1;fillColor=#ffe6cc;strokeColor=#d79b00;" vertex="1" parent="1">
          <mxGeometry x="299" y="80" width="100" height="60" as="geometry" />
        </mxCell>
        <mxCell id="KIFSzNHvPBRjN9k_AgCd-15" style="edgeStyle=orthogonalEdgeStyle;rounded=0;orthogonalLoop=1;jettySize=auto;html=1;entryX=0;entryY=0.5;entryDx=0;entryDy=0;exitX=0.84;exitY=0.475;exitDx=0;exitDy=0;exitPerimeter=0;" edge="1" parent="1" source="KIFSzNHvPBRjN9k_AgCd-2" target="KIFSzNHvPBRjN9k_AgCd-3">
          <mxGeometry relative="1" as="geometry" />
        </mxCell>
        <mxCell id="KIFSzNHvPBRjN9k_AgCd-2" value="elf文件" style="shape=dataStorage;whiteSpace=wrap;html=1;fixedSize=1;fillColor=#ffe6cc;strokeColor=#d79b00;" vertex="1" parent="1">
          <mxGeometry x="125" y="180" width="100" height="80" as="geometry" />
        </mxCell>
        <mxCell id="KIFSzNHvPBRjN9k_AgCd-17" style="edgeStyle=orthogonalEdgeStyle;rounded=0;orthogonalLoop=1;jettySize=auto;html=1;exitX=0.5;exitY=1;exitDx=0;exitDy=0;entryX=0.5;entryY=0;entryDx=0;entryDy=0;" edge="1" parent="1" source="KIFSzNHvPBRjN9k_AgCd-3" target="KIFSzNHvPBRjN9k_AgCd-4">
          <mxGeometry relative="1" as="geometry" />
        </mxCell>
        <mxCell id="KIFSzNHvPBRjN9k_AgCd-3" value="获取ELF执行时载入代码段" style="rounded=0;whiteSpace=wrap;html=1;fillColor=#ffe6cc;strokeColor=#d79b00;" vertex="1" parent="1">
          <mxGeometry x="289" y="188" width="120" height="60" as="geometry" />
        </mxCell>
        <mxCell id="KIFSzNHvPBRjN9k_AgCd-18" style="edgeStyle=orthogonalEdgeStyle;rounded=0;orthogonalLoop=1;jettySize=auto;html=1;exitX=0.5;exitY=1;exitDx=0;exitDy=0;entryX=0.5;entryY=0;entryDx=0;entryDy=0;" edge="1" parent="1" source="KIFSzNHvPBRjN9k_AgCd-4" target="KIFSzNHvPBRjN9k_AgCd-5">
          <mxGeometry relative="1" as="geometry" />
        </mxCell>
        <mxCell id="KIFSzNHvPBRjN9k_AgCd-4" value="获取ELF文件签名节" style="rounded=0;whiteSpace=wrap;html=1;fillColor=#ffe6cc;strokeColor=#d79b00;" vertex="1" parent="1">
          <mxGeometry x="290" y="270" width="120" height="60" as="geometry" />
        </mxCell>
        <mxCell id="KIFSzNHvPBRjN9k_AgCd-19" style="edgeStyle=orthogonalEdgeStyle;rounded=0;orthogonalLoop=1;jettySize=auto;html=1;exitX=1;exitY=0.5;exitDx=0;exitDy=0;entryX=0.5;entryY=0;entryDx=0;entryDy=0;" edge="1" parent="1" source="KIFSzNHvPBRjN9k_AgCd-5" target="KIFSzNHvPBRjN9k_AgCd-8">
          <mxGeometry relative="1" as="geometry" />
        </mxCell>
        <mxCell id="KIFSzNHvPBRjN9k_AgCd-27" value="存在" style="edgeLabel;html=1;align=center;verticalAlign=middle;resizable=0;points=[];" vertex="1" connectable="0" parent="KIFSzNHvPBRjN9k_AgCd-19">
          <mxGeometry x="0.4731" relative="1" as="geometry">
            <mxPoint as="offset" />
          </mxGeometry>
        </mxCell>
        <mxCell id="KIFSzNHvPBRjN9k_AgCd-20" style="edgeStyle=orthogonalEdgeStyle;rounded=0;orthogonalLoop=1;jettySize=auto;html=1;exitX=0;exitY=0.5;exitDx=0;exitDy=0;entryX=0.5;entryY=0;entryDx=0;entryDy=0;" edge="1" parent="1" source="KIFSzNHvPBRjN9k_AgCd-5" target="KIFSzNHvPBRjN9k_AgCd-9">
          <mxGeometry relative="1" as="geometry" />
        </mxCell>
        <mxCell id="KIFSzNHvPBRjN9k_AgCd-28" value="不存在" style="edgeLabel;html=1;align=center;verticalAlign=middle;resizable=0;points=[];" vertex="1" connectable="0" parent="KIFSzNHvPBRjN9k_AgCd-20">
          <mxGeometry x="-0.0858" relative="1" as="geometry">
            <mxPoint as="offset" />
          </mxGeometry>
        </mxCell>
        <mxCell id="KIFSzNHvPBRjN9k_AgCd-5" value="是否存在签名节" style="rhombus;whiteSpace=wrap;html=1;fillColor=#ffe6cc;strokeColor=#d79b00;" vertex="1" parent="1">
          <mxGeometry x="279" y="360" width="144" height="80" as="geometry" />
        </mxCell>
        <mxCell id="KIFSzNHvPBRjN9k_AgCd-21" style="edgeStyle=orthogonalEdgeStyle;rounded=0;orthogonalLoop=1;jettySize=auto;html=1;exitX=0.5;exitY=1;exitDx=0;exitDy=0;" edge="1" parent="1" source="KIFSzNHvPBRjN9k_AgCd-8" target="KIFSzNHvPBRjN9k_AgCd-10">
          <mxGeometry relative="1" as="geometry" />
        </mxCell>
        <mxCell id="KIFSzNHvPBRjN9k_AgCd-8" value="将签名节内容转换成PCKS7结构体形式" style="rounded=0;whiteSpace=wrap;html=1;fillColor=#ffe6cc;strokeColor=#d79b00;" vertex="1" parent="1">
          <mxGeometry x="430" y="440" width="120" height="60" as="geometry" />
        </mxCell>
        <mxCell id="KIFSzNHvPBRjN9k_AgCd-22" style="edgeStyle=orthogonalEdgeStyle;rounded=0;orthogonalLoop=1;jettySize=auto;html=1;exitX=0.5;exitY=1;exitDx=0;exitDy=0;entryX=0;entryY=0.5;entryDx=0;entryDy=0;" edge="1" parent="1" source="KIFSzNHvPBRjN9k_AgCd-9" target="KIFSzNHvPBRjN9k_AgCd-11">
          <mxGeometry relative="1" as="geometry" />
        </mxCell>
        <mxCell id="KIFSzNHvPBRjN9k_AgCd-9" value="PKCS7签名模块创建PKCS7结构体并签名" style="rounded=0;whiteSpace=wrap;html=1;fillColor=#ffe6cc;strokeColor=#d79b00;" vertex="1" parent="1">
          <mxGeometry x="180" y="540" width="120" height="60" as="geometry" />
        </mxCell>
        <mxCell id="KIFSzNHvPBRjN9k_AgCd-23" style="edgeStyle=orthogonalEdgeStyle;rounded=0;orthogonalLoop=1;jettySize=auto;html=1;exitX=0.5;exitY=1;exitDx=0;exitDy=0;entryX=1;entryY=0.5;entryDx=0;entryDy=0;" edge="1" parent="1" source="KIFSzNHvPBRjN9k_AgCd-10" target="KIFSzNHvPBRjN9k_AgCd-11">
          <mxGeometry relative="1" as="geometry" />
        </mxCell>
        <mxCell id="KIFSzNHvPBRjN9k_AgCd-10" value="PKCS7签名模块完成签名并更新PKCS7结构体" style="rounded=0;whiteSpace=wrap;html=1;fillColor=#ffe6cc;strokeColor=#d79b00;" vertex="1" parent="1">
          <mxGeometry x="430" y="540" width="120" height="60" as="geometry" />
        </mxCell>
        <mxCell id="KIFSzNHvPBRjN9k_AgCd-24" style="edgeStyle=orthogonalEdgeStyle;rounded=0;orthogonalLoop=1;jettySize=auto;html=1;exitX=0.5;exitY=1;exitDx=0;exitDy=0;entryX=0.5;entryY=0;entryDx=0;entryDy=0;" edge="1" parent="1" source="KIFSzNHvPBRjN9k_AgCd-11" target="KIFSzNHvPBRjN9k_AgCd-12">
          <mxGeometry relative="1" as="geometry" />
        </mxCell>
        <mxCell id="KIFSzNHvPBRjN9k_AgCd-11" value="PKCS7结构体转换为PEM格式" style="rounded=0;whiteSpace=wrap;html=1;fillColor=#ffe6cc;strokeColor=#d79b00;" vertex="1" parent="1">
          <mxGeometry x="300" y="640" width="120" height="60" as="geometry" />
        </mxCell>
        <mxCell id="KIFSzNHvPBRjN9k_AgCd-25" style="edgeStyle=orthogonalEdgeStyle;rounded=0;orthogonalLoop=1;jettySize=auto;html=1;exitX=0.5;exitY=1;exitDx=0;exitDy=0;entryX=0.442;entryY=0.013;entryDx=0;entryDy=0;entryPerimeter=0;" edge="1" parent="1">
          <mxGeometry relative="1" as="geometry">
            <mxPoint x="377" y="790" as="sourcePoint" />
            <mxPoint x="359.03999999999996" y="810.78" as="targetPoint" />
          </mxGeometry>
        </mxCell>
        <mxCell id="KIFSzNHvPBRjN9k_AgCd-12" value="附加转换后PEM格式数据到ELF文件节中" style="rounded=0;whiteSpace=wrap;html=1;fillColor=#ffe6cc;strokeColor=#d79b00;" vertex="1" parent="1">
          <mxGeometry x="300" y="730" width="120" height="60" as="geometry" />
        </mxCell>
        <mxCell id="KIFSzNHvPBRjN9k_AgCd-14" value="结束" style="ellipse;whiteSpace=wrap;html=1;fillColor=#ffe6cc;strokeColor=#d79b00;" vertex="1" parent="1">
          <mxGeometry x="302" y="810" width="110" height="60" as="geometry" />
        </mxCell>
      </root>
    </mxGraphModel>
  </diagram>
</mxfile>
